<?xml version="1.0" encoding="UTF-8"?>
<svg version="1.1" xmlns="http://www.w3.org/2000/svg" width="823" height="301">
<path d="M0 0 C271.59 0 543.18 0 823 0 C823 99.33 823 198.66 823 301 C551.41 301 279.82 301 0 301 C0 201.67 0 102.34 0 0 Z " fill="#FEFEFE" transform="translate(0,0)"/>
<path d="M0 0 C0.99386719 0.556875 1.98773438 1.11375 3.01171875 1.6875 C18.68534725 10.9888259 35.64622484 27.30926469 41 45 C42.03125 45.0825 43.0625 45.165 44.125 45.25 C48.47292236 46.09153336 50.62730514 47.15194657 54 50 C57.18785786 54.99159668 59.21303845 59.93582155 61 65.5625 C61.25346191 66.34971436 61.50692383 67.13692871 61.76806641 67.94799805 C62.27837513 69.54404593 62.78446338 71.14144995 63.28613281 72.74023438 C63.92940306 74.77652349 64.59783883 76.80240308 65.2734375 78.828125 C67.88992793 87.1043997 70.46670291 96.29786142 66.859375 104.63671875 C63.57130176 109.87167746 59.40533345 114.18254676 53.9140625 117.11328125 C50.99241542 119.99319051 50.9736168 123.41101098 50.5 127.3125 C50.25814334 128.95395071 50.01068559 130.59458529 49.7578125 132.234375 C49.6330957 133.04583984 49.50837891 133.85730469 49.37988281 134.69335938 C46.40504679 152.7565025 37.8483026 167.32959698 25 180 C24.43023437 180.65097656 23.86046875 181.30195313 23.2734375 181.97265625 C15.85561731 190.32245898 4.85831894 195.58629924 -5.4375 199.5 C-6.39354126 199.86460327 -6.39354126 199.86460327 -7.36889648 200.23657227 C-25.18861951 206.59364084 -46.56133284 204.04521789 -63.32666016 196.16186523 C-69.72219303 193.02031676 -75.50472013 189.55529779 -81 185 C-81.7115625 184.49210938 -82.423125 183.98421875 -83.15625 183.4609375 C-87.79813572 180.10669816 -90.96738263 176.79246521 -94.3125 172.125 C-97.39902947 168.09751967 -97.39902947 168.09751967 -101.953125 166.25 C-104.01031444 166.16729892 -106.070137 166.1339853 -108.12890625 166.15234375 C-114.36580836 165.82140609 -118.9688115 161.4619405 -123 157 C-126.5646262 150.69973044 -128.82597753 143.80288934 -131.0234375 136.93359375 C-132.24324411 133.26929469 -133.67805714 129.71779171 -135.16796875 126.15625 C-136.74877739 122.05950649 -137.18342094 118.46226633 -137.25 114.0625 C-137.27578125 113.04285156 -137.3015625 112.02320313 -137.328125 110.97265625 C-136.80581931 106.24081537 -134.94640133 103.80381206 -131.35546875 100.75390625 C-128.05289536 96.89268861 -128.30132423 93.86455736 -128.3125 88.9375 C-128.27068332 87.23294131 -128.22381094 85.52849913 -128.171875 83.82421875 C-128.13803711 82.58551025 -128.13803711 82.58551025 -128.10351562 81.32177734 C-127.82693268 75.11823062 -126.65486266 69.10245382 -124.8125 63.1875 C-123.70991846 58.86198782 -123.88541979 55.03246979 -126.0625 51.0625 C-127.55894628 47.77031819 -127.56670477 44.50817236 -127 41 C-125.25364203 37.85655565 -123.53137274 35.53137274 -121 33 C-121.29329272 30.69254991 -121.29329272 30.69254991 -122 28 C-122.99588797 23.51850415 -123.42914298 20.03474914 -121.30859375 15.8125 C-109.76845513 -0.1714532 -83.34212467 -7.68565499 -64.9375 -10.9375 C-42.01435284 -14.44850403 -20.11081216 -11.76325172 0 0 Z " fill="#FAFAFA" transform="translate(142,50)"/>
<path d="M0 0 C0.99386719 0.556875 1.98773438 1.11375 3.01171875 1.6875 C18.68534725 10.9888259 35.64622484 27.30926469 41 45 C42.03125 45.0825 43.0625 45.165 44.125 45.25 C48.47292236 46.09153336 50.62730514 47.15194657 54 50 C57.18785786 54.99159668 59.21303845 59.93582155 61 65.5625 C61.25346191 66.34971436 61.50692383 67.13692871 61.76806641 67.94799805 C62.27837513 69.54404593 62.78446338 71.14144995 63.28613281 72.74023438 C63.92940306 74.77652349 64.59783883 76.80240308 65.2734375 78.828125 C67.88992793 87.1043997 70.46670291 96.29786142 66.859375 104.63671875 C63.57130176 109.87167746 59.40533345 114.18254676 53.9140625 117.11328125 C50.99241542 119.99319051 50.9736168 123.41101098 50.5 127.3125 C50.25814334 128.95395071 50.01068559 130.59458529 49.7578125 132.234375 C49.6330957 133.04583984 49.50837891 133.85730469 49.37988281 134.69335938 C46.40504679 152.7565025 37.8483026 167.32959698 25 180 C24.43023437 180.65097656 23.86046875 181.30195313 23.2734375 181.97265625 C15.85561731 190.32245898 4.85831894 195.58629924 -5.4375 199.5 C-6.39354126 199.86460327 -6.39354126 199.86460327 -7.36889648 200.23657227 C-25.18861951 206.59364084 -46.56133284 204.04521789 -63.32666016 196.16186523 C-69.72219303 193.02031676 -75.50472013 189.55529779 -81 185 C-81.7115625 184.49210938 -82.423125 183.98421875 -83.15625 183.4609375 C-87.79813572 180.10669816 -90.96738263 176.79246521 -94.3125 172.125 C-97.39902947 168.09751967 -97.39902947 168.09751967 -101.953125 166.25 C-104.01031444 166.16729892 -106.070137 166.1339853 -108.12890625 166.15234375 C-114.36580836 165.82140609 -118.9688115 161.4619405 -123 157 C-126.5646262 150.69973044 -128.82597753 143.80288934 -131.0234375 136.93359375 C-132.24324411 133.26929469 -133.67805714 129.71779171 -135.16796875 126.15625 C-136.74877739 122.05950649 -137.18342094 118.46226633 -137.25 114.0625 C-137.27578125 113.04285156 -137.3015625 112.02320313 -137.328125 110.97265625 C-136.80581931 106.24081537 -134.94640133 103.80381206 -131.35546875 100.75390625 C-128.05289536 96.89268861 -128.30132423 93.86455736 -128.3125 88.9375 C-128.27068332 87.23294131 -128.22381094 85.52849913 -128.171875 83.82421875 C-128.13803711 82.58551025 -128.13803711 82.58551025 -128.10351562 81.32177734 C-127.82693268 75.11823062 -126.65486266 69.10245382 -124.8125 63.1875 C-123.70991846 58.86198782 -123.88541979 55.03246979 -126.0625 51.0625 C-127.55894628 47.77031819 -127.56670477 44.50817236 -127 41 C-125.25364203 37.85655565 -123.53137274 35.53137274 -121 33 C-121.29329272 30.69254991 -121.29329272 30.69254991 -122 28 C-122.99588797 23.51850415 -123.42914298 20.03474914 -121.30859375 15.8125 C-109.76845513 -0.1714532 -83.34212467 -7.68565499 -64.9375 -10.9375 C-42.01435284 -14.44850403 -20.11081216 -11.76325172 0 0 Z M-37.5 30 C-38.67485146 31.66090726 -39.84157748 33.32759271 -41 35 C-50.96468445 47.98795037 -67.71164654 59.16305682 -84 62 C-89.44464795 62.23516908 -94.8618735 61.93189978 -100.29882812 61.61914062 C-103.29755248 61.526621 -106.04165659 61.49814335 -109 62 C-114.82881381 67.7771552 -116.04585532 77.8310516 -116.4375 85.8125 C-115.79091465 103.94628007 -106.68992301 122.01713828 -99.98974609 138.54614258 C-98.95205487 141.11886939 -97.93151306 143.69809459 -96.91015625 146.27734375 C-90.81539389 161.4794774 -81.14571301 173.53922032 -67 182 C-65.69095703 182.81404297 -65.69095703 182.81404297 -64.35546875 183.64453125 C-49.61034331 192.31441187 -32.25281081 193.96638594 -15.7578125 190.10546875 C-5.11055881 186.9732725 4.78562373 182.58989153 13 175 C14.10021484 174.05253906 14.10021484 174.05253906 15.22265625 173.0859375 C27.11332922 162.19465214 35.38295971 146.29395473 36.40234375 130.1171875 C36.71327189 120.72789149 35.82467329 112.70510725 32.16064453 104.00756836 C29.91143407 98.60715201 28.00651515 93.12881935 26.1953125 87.5703125 C25.946604 86.80850174 25.69789551 86.04669098 25.44165039 85.26179504 C24.40826905 82.08874691 23.37803374 78.91478175 22.35986328 75.73681641 C16.15633396 56.41884331 9.60070007 42.1005212 -9 32 C-14.62809674 29.29687033 -19.80615428 27.65891976 -26 27 C-26.495 26.505 -26.495 26.505 -27 26 C-32.31643917 24.93671217 -34.35123174 25.85388432 -37.5 30 Z " fill="#040404" transform="translate(142,50)"/>
<path d="M0 0 C62.15126404 0 62.15126404 0 74.328125 11.98828125 C81.74969672 20.91844348 86.59698726 30.05553308 86.4375 41.75 C86.42992676 42.5349585 86.42235352 43.31991699 86.41455078 44.12866211 C86.0854242 55.85349623 81.97545349 65.8894493 73.75390625 74.296875 C67.5899441 80.00537197 67.5899441 80.00537197 63 81 C69.58368683 96.20411249 76.38977637 111.27792062 83.49072266 126.24658203 C83.78366211 126.86749222 84.07660156 127.4884024 84.37841797 128.12812805 C85.17488975 129.8162602 85.97525032 131.50255603 86.77587891 133.1887207 C88 136 88 136 89 140 C78.11 140 67.22 140 56 140 C53.52777203 134.6473569 51.05574963 129.29461978 48.58422852 123.94165039 C47.74547827 122.12519014 46.90661364 120.3087827 46.06762695 118.49243164 C44.85336834 115.86358706 43.63953776 113.23454519 42.42578125 110.60546875 C42.05785965 109.8091655 41.68993805 109.01286224 41.31086731 108.19242859 C38.51679376 102.13870027 35.75913458 96.07009607 33 90 C32.67 106.5 32.34 123 32 140 C21.44 140 10.88 140 0 140 C0 93.8 0 47.6 0 0 Z " fill="#010101" transform="translate(354,76)"/>
<path d="M0 0 C11.88 0 23.76 0 36 0 C39.75 11.875 39.75 11.875 40.90527344 15.55419922 C42.7594857 21.38538364 44.77520228 27.07671167 47.10253906 32.73486328 C48.43562709 36.09949623 49.47425901 39.53185234 50.5 43 C52.10648115 48.29415584 53.89786028 53.40452557 56.03515625 58.51171875 C57.60100574 62.54996216 58.76309755 66.70817431 60.00390625 70.85546875 C60.86737817 73.58133109 61.83468782 76.17726607 62.9375 78.8125 C64.73638285 83.13687329 66.13791292 87.52442312 67.5 92 C68.84327545 96.41260133 70.21573741 100.74079253 72 105 C74.06464464 109.92850657 75.58577577 114.98288389 77.13354492 120.09082031 C78.59165149 124.84879262 80.2858545 129.42888843 82.30078125 133.984375 C83 136 83 136 83 140 C71.78 140 60.56 140 49 140 C44.1875 125.5 44.1875 125.5 42.68823242 120.97460938 C40.56886118 114.60321477 38.38831618 108.27627274 36 102 C35.0776347 99.34193149 34.19192641 96.67253471 33.3125 94 C32.549375 91.69 31.78625 89.38 31 87 C22.09 86.67 13.18 86.34 4 86 C3.67 88.31 3.34 90.62 3 93 C2.16796875 95.4140625 2.16796875 95.4140625 1.1875 97.625 C-0.45748759 101.53258785 -1.7903742 105.43603981 -3 109.5 C-4.16657241 113.39008777 -5.40050331 117.17833942 -6.9375 120.9375 C-9.49415722 127.21293135 -11.72090122 133.61852341 -14 140 C-25.22 140 -36.44 140 -48 140 C-45.74942692 129.87242115 -45.74942692 129.87242115 -44.16015625 125.37109375 C-43.6487207 123.91219727 -43.6487207 123.91219727 -43.12695312 122.42382812 C-42.77568359 121.43833984 -42.42441406 120.45285156 -42.0625 119.4375 C-41.71509766 118.44814453 -41.36769531 117.45878906 -41.00976562 116.43945312 C-39.5251908 112.22616826 -38.0199107 108.02375187 -36.43359375 103.84765625 C-34.82927018 99.6062224 -33.41172064 95.30868903 -32 91 C-30.34034406 85.93459177 -28.61310206 80.91613433 -26.71875 75.93359375 C-25.56035816 72.81726789 -24.53529164 69.6589668 -23.5 66.5 C-22.24449062 62.66908675 -20.96378654 58.86161954 -19.53125 55.09375 C-17.89164182 50.77038419 -16.43946334 46.39336206 -15 42 C-13.33930025 36.93140596 -11.61015348 31.91037108 -9.71435547 26.92480469 C-8.13050988 22.65719066 -6.78331068 18.30565075 -5.37890625 13.9765625 C-3.74343778 9.26011235 -1.85396719 4.63491799 0 0 Z " fill="#020202" transform="translate(495,76)"/>
<path d="M0 0 C10.56 0 21.12 0 32 0 C33.27617188 2.41957031 34.55234375 4.83914062 35.8671875 7.33203125 C37.10459205 9.67541705 38.3425521 12.01850856 39.58056641 14.36157227 C40.44052323 15.98984585 41.29990241 17.61842463 42.15869141 19.24731445 C43.39333716 21.58885938 44.63005749 23.9292981 45.8671875 26.26953125 C46.25059296 26.99775589 46.63399841 27.72598053 47.02902222 28.47627258 C48.58292663 31.41167879 50.15599199 34.23398798 52 37 C52 37.99 52 38.98 52 40 C52.66 40 53.32 40 54 40 C54.25072266 39.16500977 54.50144531 38.33001953 54.75976562 37.46972656 C56.13769798 33.61477092 57.91504457 30.08229963 59.84375 26.484375 C60.39838928 25.43881439 60.39838928 25.43881439 60.9642334 24.37213135 C61.74197929 22.90867733 62.5220069 21.44643387 63.30419922 19.98535156 C64.5020695 17.74613142 65.69095995 15.5023103 66.87890625 13.2578125 C67.63749251 11.83305191 68.39658928 10.40856299 69.15625 8.984375 C69.51150757 8.31355896 69.86676514 7.64274292 70.23278809 6.95159912 C71.64473985 4.32376687 72.87817067 2.12182933 75 0 C78.07275391 -0.22705078 78.07275391 -0.22705078 81.9765625 -0.1953125 C83.00443375 -0.19106766 83.00443375 -0.19106766 84.05307007 -0.18673706 C86.24389027 -0.17553281 88.43430316 -0.15042859 90.625 -0.125 C92.1093691 -0.11497048 93.5937446 -0.10584458 95.078125 -0.09765625 C98.71888261 -0.07559294 102.35940156 -0.04106176 106 0 C104.84221635 3.68154743 103.58532035 7.04343935 101.70703125 10.4140625 C101.24901123 11.24365479 100.79099121 12.07324707 100.3190918 12.92797852 C99.8219165 13.81799561 99.32474121 14.7080127 98.8125 15.625 C97.73068817 17.58403794 96.65001568 19.54370536 95.5703125 21.50390625 C94.99442383 22.54820801 94.41853516 23.59250977 93.82519531 24.66845703 C90.56998216 30.6102225 87.3802648 36.58701515 84.1875 42.5625 C82.9727123 44.83466538 81.75787006 47.10680161 80.54296875 49.37890625 C79.96724121 50.46703613 79.39151367 51.55516602 78.79833984 52.67626953 C77.54143542 54.99930739 76.26182344 57.27937249 74.92431641 59.55419922 C74.5897493 60.13636703 74.25518219 60.71853485 73.91047668 61.31834412 C72.98026718 62.93278005 72.0322887 64.53694007 71.08325195 66.14038086 C69.71805281 68.91649564 69.71805281 68.91649564 70.65356445 71.54931641 C71.09788818 72.35804199 71.54221191 73.16676758 72 74 C72.40589355 74.82943115 72.81178711 75.6588623 73.22998047 76.51342773 C73.68775879 77.39458252 74.14553711 78.2757373 74.6171875 79.18359375 C75.13571289 80.18261719 75.65423828 81.18164062 76.18847656 82.2109375 C77.02330566 83.80808594 77.02330566 83.80808594 77.875 85.4375 C78.45217773 86.54480469 79.02935547 87.65210938 79.62402344 88.79296875 C84.37404667 97.87320956 89.26183427 106.87363132 94.1875 115.859375 C96.89990917 120.80970854 99.58977441 125.7714252 102.25 130.75 C102.63317383 131.45962891 103.01634766 132.16925781 103.41113281 132.90039062 C106 137.76755799 106 137.76755799 106 140 C95.77 140 85.54 140 75 140 C70.24894068 131.46186441 70.24894068 131.46186441 67.95703125 127.328125 C65.93926999 123.68951691 63.91456893 120.05486857 61.88671875 116.421875 C60.88260635 114.61469786 59.8786951 112.80740894 58.875 111 C58.38990967 110.13407227 57.90481934 109.26814453 57.4050293 108.37597656 C56.9594165 107.5712793 56.51380371 106.76658203 56.0546875 105.9375 C55.65749512 105.22464844 55.26030273 104.51179688 54.85107422 103.77734375 C54 102 54 102 54 100 C53.34 100 52.68 100 52 100 C51.73952881 100.8559375 51.47905762 101.711875 51.21069336 102.59375 C49.9584017 106.1170356 48.41174285 109.21495626 46.62890625 112.5 C46.14441261 113.3981543 46.14441261 113.3981543 45.65013123 114.31445312 C44.62539039 116.212095 43.59421699 118.10614348 42.5625 120 C41.53571364 121.89456461 40.51028672 123.78985648 39.48558044 125.68554688 C38.55464876 127.40621135 37.62031715 129.12503509 36.68579102 130.84375 C35.07053062 133.86794789 33.5332866 136.93342679 32 140 C21.44 140 10.88 140 0 140 C1.3118785 136.06436449 2.28218281 133.19556075 4.22265625 129.7265625 C4.6705249 128.91727295 5.11839355 128.1079834 5.57983398 127.27416992 C6.06911377 126.39994385 6.55839355 125.52571777 7.0625 124.625 C12.83935646 114.17780164 18.45950157 103.6536055 24.04104614 93.10113525 C24.75448502 91.75239517 25.46834747 90.40387905 26.18266296 89.05560303 C26.86227288 87.77159289 27.54014541 86.48666142 28.21614075 85.20074463 C30.42606064 81.01364546 32.76577418 76.9300925 35.28735352 72.9230957 C36.2824245 70.2378699 35.82831213 68.72115684 35 66 C34.17395935 64.21541623 33.27751462 62.46256185 32.33203125 60.73828125 C31.4968396 59.20252441 31.4968396 59.20252441 30.64477539 57.63574219 C29.73779907 55.9907373 29.73779907 55.9907373 28.8125 54.3125 C27.86238857 52.56855762 26.91228637 50.82461013 25.9627533 49.08035278 C24.97400221 47.26612354 23.98243048 45.45346044 22.99023438 43.64111328 C19.82523436 37.85619659 16.69370898 32.0532651 13.5625 26.25 C13.00860596 25.22946533 12.45471191 24.20893066 11.8840332 23.1574707 C7.75093826 15.50842858 3.89387186 7.78774372 0 0 Z " fill="#020202" transform="translate(589,76)"/>
<path d="M0 0 C31.35 0 62.7 0 95 0 C95 10.23 95 20.46 95 31 C84.44 31 73.88 31 63 31 C63 66.97 63 102.94 63 140 C52.44 140 41.88 140 31 140 C31 104.03 31 68.06 31 31 C20.77 31 10.54 31 0 31 C0 20.77 0 10.54 0 0 Z " fill="#020202" transform="translate(249,76)"/>
<path d="M0 0 C6.5130473 3.34698264 10.86265958 8.48309802 14 15 C14.5878125 16.20076172 14.5878125 16.20076172 15.1875 17.42578125 C18.70576527 25.67171547 19.99695035 35.2380484 17.01171875 43.8515625 C14.34847716 48.91419511 11.53997825 52.15334058 6 54 C2.15716316 54.13973952 -1.3171369 54.17851619 -5 53 C-5 52.34 -5 51.68 -5 51 C-5.556875 50.79375 -6.11375 50.5875 -6.6875 50.375 C-13.84181315 46.12108407 -18.54230335 36.74494003 -21 29 C-22.4066005 21.21860158 -21.90017256 12.91966099 -18 6 C-13.27257144 -0.23589579 -7.57502683 -1.75544863 0 0 Z " fill="#060505" transform="translate(127,121)"/>
<path d="M0 0 C8.33979515 5.3861177 13.15621206 12.37838123 16 21.9375 C17.26624016 29.56319738 17.5315302 37.60622565 13.25 44.3125 C10.63311809 47.6298604 7.9305289 50.5139656 3.703125 51.44140625 C-2.23889689 51.58333352 -5.74523379 50.61233642 -10.2578125 46.6796875 C-17.95956635 38.97793365 -22.09416089 27.87461826 -22.625 17 C-22.29108918 10.40035084 -19.07804786 6.32114313 -14.875 1.5 C-10.51556845 -2.13285962 -5.13011906 -1.81691717 0 0 Z " fill="#050505" transform="translate(68,139.0625)"/>
<path d="M0 0 C0.99 0 1.98 0 3 0 C4.60408988 3.20817975 4.22619086 6.6667233 4.25 10.1875 C4.270625 10.93064453 4.29125 11.67378906 4.3125 12.43945312 C4.34934901 17.6950429 3.51655672 21.35821715 1 26 C-2.53327105 27.48769307 -5.35019258 26.93852191 -9 26 C-9.26554687 26.72574219 -9.53109375 27.45148438 -9.8046875 28.19921875 C-11.00072948 31.00170928 -12.40329107 33.30479352 -14.125 35.8125 C-14.66382813 36.60269531 -15.20265625 37.39289063 -15.7578125 38.20703125 C-16.16773438 38.79871094 -16.57765625 39.39039063 -17 40 C-21.875 39.125 -21.875 39.125 -23 38 C-24.99958364 37.95919217 -27.00045254 37.95745644 -29 38 C-30.32 40.64 -31.64 43.28 -33 46 C-36.74453376 45.65167128 -38.65775159 45.27705824 -41.625 42.875 C-43.77365771 40.78054265 -43.77365771 40.78054265 -46.125 41 C-48.16807552 41.8997325 -48.16807552 41.8997325 -49.375 44.0625 C-51 46 -51 46 -54 46.375 C-57 46 -57 46 -60 44 C-60 43.34 -60 42.68 -60 42 C-62.61673759 40.59817629 -65.0371669 39.39504441 -68 39 C-68.66 39.66 -69.32 40.32 -70 41 C-74 41 -74 41 -75.78125 39.4609375 C-85 28.27272727 -85 28.27272727 -85 23 C-81.70134487 23.36651724 -80.90150863 24.10606763 -78.5625 26.625 C-76.26800948 29.26228976 -76.26800948 29.26228976 -73.4375 29.125 C-70.34266718 27.69661562 -69.09798954 25.6394062 -67 23 C-65.68 23 -64.36 23 -63 23 C-62.8046875 24.98567708 -62.609375 26.97135417 -62.4140625 28.95703125 C-62.07334609 31.29988142 -62.07334609 31.29988142 -60 34 C-56.91634129 34.2502157 -56.91634129 34.2502157 -54 34 C-52.35 30.7 -50.7 27.4 -49 24 C-45 25 -45 25 -43.65625 26.62890625 C-42.88426929 27.9198875 -42.11343876 29.21155722 -41.34375 30.50390625 C-40.67859375 31.24447266 -40.67859375 31.24447266 -40 32 C-38.68 32 -37.36 32 -36 32 C-34.85185003 29.70370006 -34.69230191 27.92301914 -34.4375 25.375 C-34.35371094 24.55773437 -34.26992187 23.74046875 -34.18359375 22.8984375 C-34.09271484 21.95871094 -34.09271484 21.95871094 -34 21 C-30.26773936 21.32931712 -28.95868484 22.03604088 -26.0625 24.5625 C-22.86992863 27.62274581 -22.86992863 27.62274581 -17 27 C-17.495 21.06 -17.495 21.06 -18 15 C-13.38 15 -8.76 15 -4 15 C-3.67772777 10.41833414 -3.67772777 10.41833414 -4.8125 8.0625 C-5 6 -5 6 -2.75 2.75 C-1.8425 1.8425 -0.935 0.935 0 0 Z " fill="#0E0C0C" transform="translate(153,183)"/>
<path d="M0 0 C6.14689273 0.36881356 8.69027374 1.90050429 13 6 C12.67 7.65 12.34 9.3 12 11 C10.081875 11.185625 10.081875 11.185625 8.125 11.375 C4.65209064 11.69042399 4.65209064 11.69042399 2 14 C0.68 14 -0.64 14 -2 14 C-2.3690205 4.58997722 -2.3690205 4.58997722 0 0 Z " fill="#121010" transform="translate(98,181)"/>
<path d="M0 0 C1.32 0 2.64 0 4 0 C4.33 0.99 4.66 1.98 5 3 C3.68 3 2.36 3 1 3 C0.67 4.32 0.34 5.64 0 7 C-0.38133299 5.0085944 -0.71325582 3.00720923 -1 1 C-0.67 0.67 -0.34 0.34 0 0 Z " fill="#CCCBCA" transform="translate(134,195)"/>
</svg>
